<?xml version="1.0" standalone="no"?>
<!DOCTYPE svg PUBLIC "-//W3C//DTD SVG 20010904//EN"
 "http://www.w3.org/TR/2001/REC-SVG-20010904/DTD/svg10.dtd">
<svg version="1.0" xmlns="http://www.w3.org/2000/svg"
 width="17.000000pt" height="21.000000pt" viewBox="0 0 17.000000 21.000000"
 preserveAspectRatio="xMidYMid meet">

<g transform="translate(0.000000,21.000000) scale(0.100000,-0.100000)"
fill="#000000" stroke="none">
<path d="M56 194 c-9 -8 -16 -22 -16 -30 0 -8 -9 -14 -20 -14 -18 0 -20 -7
-20 -75 l0 -75 85 0 85 0 0 75 c0 60 -3 75 -15 75 -8 0 -15 6 -15 14 0 20 -28
46 -50 46 -10 0 -26 -7 -34 -16z m52 -16 c19 -19 14 -28 -18 -28 -32 0 -37 9
-18 28 15 15 21 15 36 0z m12 -68 c0 -5 -10 -10 -22 -10 -21 -1 -21 -2 5 -16
16 -8 27 -20 25 -26 -7 -20 -34 -32 -54 -23 -18 8 -17 9 4 12 27 5 29 23 2 23
-15 0 -20 7 -20 25 0 21 5 25 30 25 17 0 30 -4 30 -10z"/>
</g>
</svg>
